%TF.GenerationSoftware,KiCad,Pcbnew,8.0.5*%
%TF.CreationDate,2024-11-15T19:55:36-05:00*%
%TF.ProjectId,m3++,6d332b2b-2e6b-4696-9361-645f70636258,rev?*%
%TF.SameCoordinates,Original*%
%TF.FileFunction,Soldermask,Top*%
%TF.FilePolarity,Negative*%
%FSLAX46Y46*%
G04 Gerber Fmt 4.6, Leading zero omitted, Abs format (unit mm)*
G04 Created by KiCad (PCBNEW 8.0.5) date 2024-11-15 19:55:36*
%MOMM*%
%LPD*%
G01*
G04 APERTURE LIST*
%ADD10C,1.700000*%
%ADD11C,4.000000*%
%ADD12C,2.200000*%
%ADD13C,2.700000*%
%ADD14R,1.600000X1.600000*%
%ADD15C,1.600000*%
%ADD16R,1.300000X1.300000*%
%ADD17C,1.300000*%
G04 APERTURE END LIST*
D10*
%TO.C,SW12*%
X121840000Y-122000000D03*
D11*
X126920000Y-122000000D03*
D10*
X132000000Y-122000000D03*
D12*
X129460000Y-116920000D03*
X123110000Y-119460000D03*
%TD*%
D10*
%TO.C,SW10*%
X121840000Y-83000000D03*
D11*
X126920000Y-83000000D03*
D10*
X132000000Y-83000000D03*
D12*
X129460000Y-77920000D03*
X123110000Y-80460000D03*
%TD*%
D10*
%TO.C,SW9*%
X121840000Y-63500000D03*
D11*
X126920000Y-63500000D03*
D10*
X132000000Y-63500000D03*
D12*
X129460000Y-58420000D03*
X123110000Y-60960000D03*
%TD*%
D10*
%TO.C,SW2*%
X102340000Y-44000000D03*
D11*
X107420000Y-44000000D03*
D10*
X112500000Y-44000000D03*
D12*
X109960000Y-38920000D03*
X103610000Y-41460000D03*
%TD*%
D13*
%TO.C,H1*%
X92000000Y-18000000D03*
%TD*%
%TO.C,H4*%
X186000000Y-18000000D03*
%TD*%
D10*
%TO.C,SW6*%
X102340000Y-122000000D03*
D11*
X107420000Y-122000000D03*
D10*
X112500000Y-122000000D03*
D12*
X109960000Y-116920000D03*
X103610000Y-119460000D03*
%TD*%
D13*
%TO.C,H3*%
X186000000Y-132171573D03*
%TD*%
D14*
%TO.C,U1*%
X162949200Y-16700800D03*
D15*
X162949200Y-19240800D03*
X162949200Y-21780800D03*
X162949200Y-24320800D03*
X162949200Y-26860800D03*
X162949200Y-29400800D03*
X162949200Y-31940800D03*
X162949200Y-34480800D03*
X162949200Y-37020800D03*
X162949200Y-39560800D03*
X162949200Y-42100800D03*
X162949200Y-44640800D03*
X162949200Y-47180800D03*
X162949200Y-49720800D03*
X162949200Y-52260800D03*
X162949200Y-54800800D03*
X162949200Y-57340800D03*
X162949200Y-59880800D03*
X162949200Y-62420800D03*
X162949200Y-64960800D03*
X162949200Y-67500800D03*
X162949200Y-70040800D03*
X162949200Y-72580800D03*
X162949200Y-75120800D03*
X178189200Y-75120800D03*
X178189200Y-72580800D03*
X178189200Y-70040800D03*
X178189200Y-67500800D03*
X178189200Y-64960800D03*
X178189200Y-62420800D03*
X178189200Y-59880800D03*
X178189200Y-57340800D03*
X178189200Y-54800800D03*
X178189200Y-52260800D03*
X178189200Y-49720800D03*
X178189200Y-47180800D03*
X178189200Y-44640800D03*
X178189200Y-42100800D03*
X178189200Y-39560800D03*
X178189200Y-37020800D03*
X178189200Y-34480800D03*
X178189200Y-31940800D03*
X178189200Y-29400800D03*
X178189200Y-26860800D03*
X178189200Y-24320800D03*
X178189200Y-21780800D03*
X178189200Y-19240800D03*
X178189200Y-16700800D03*
X175649200Y-19240800D03*
X165489200Y-62420800D03*
X168029200Y-62420800D03*
X170569200Y-62420800D03*
X173109200Y-62420800D03*
X175649200Y-62420800D03*
D14*
X166000000Y-23000000D03*
D15*
X166000000Y-25540000D03*
X166000000Y-28080000D03*
X166000000Y-30620000D03*
X166000000Y-33160000D03*
D16*
X175750800Y-29670800D03*
D17*
X173750800Y-29670800D03*
X171750800Y-29670800D03*
X171750800Y-31670800D03*
X173750800Y-31670800D03*
X175750800Y-31670800D03*
X171839200Y-17430800D03*
X169299200Y-17430800D03*
%TD*%
D10*
%TO.C,SW5*%
X102340000Y-102500000D03*
D11*
X107420000Y-102500000D03*
D10*
X112500000Y-102500000D03*
D12*
X109960000Y-97420000D03*
X103610000Y-99960000D03*
%TD*%
D10*
%TO.C,SW1*%
X102340000Y-24500000D03*
D11*
X107420000Y-24500000D03*
D10*
X112500000Y-24500000D03*
D12*
X109960000Y-19420000D03*
X103610000Y-21960000D03*
%TD*%
D10*
%TO.C,SW4*%
X102340000Y-83000000D03*
D11*
X107420000Y-83000000D03*
D10*
X112500000Y-83000000D03*
D12*
X109960000Y-77920000D03*
X103610000Y-80460000D03*
%TD*%
D10*
%TO.C,SW8*%
X121840000Y-44000000D03*
D11*
X126920000Y-44000000D03*
D10*
X132000000Y-44000000D03*
D12*
X129460000Y-38920000D03*
X123110000Y-41460000D03*
%TD*%
D10*
%TO.C,SW7*%
X121840000Y-24500000D03*
D11*
X126920000Y-24500000D03*
D10*
X132000000Y-24500000D03*
D12*
X129460000Y-19420000D03*
X123110000Y-21960000D03*
%TD*%
D10*
%TO.C,SW3*%
X102340000Y-63500000D03*
D11*
X107420000Y-63500000D03*
D10*
X112500000Y-63500000D03*
D12*
X109960000Y-58420000D03*
X103610000Y-60960000D03*
%TD*%
D10*
%TO.C,SW11*%
X121840000Y-102500000D03*
D11*
X126920000Y-102500000D03*
D10*
X132000000Y-102500000D03*
D12*
X129460000Y-97420000D03*
X123110000Y-99960000D03*
%TD*%
D13*
%TO.C,H2*%
X92000000Y-132000000D03*
%TD*%
M02*
