%TF.GenerationSoftware,KiCad,Pcbnew,8.0.5*%
%TF.CreationDate,2024-11-15T19:55:36-05:00*%
%TF.ProjectId,m3++,6d332b2b-2e6b-4696-9361-645f70636258,rev?*%
%TF.SameCoordinates,Original*%
%TF.FileFunction,Copper,L2,Bot*%
%TF.FilePolarity,Positive*%
%FSLAX46Y46*%
G04 Gerber Fmt 4.6, Leading zero omitted, Abs format (unit mm)*
G04 Created by KiCad (PCBNEW 8.0.5) date 2024-11-15 19:55:36*
%MOMM*%
%LPD*%
G01*
G04 APERTURE LIST*
%TA.AperFunction,ComponentPad*%
%ADD10C,2.200000*%
%TD*%
%TA.AperFunction,ComponentPad*%
%ADD11R,1.600000X1.600000*%
%TD*%
%TA.AperFunction,ComponentPad*%
%ADD12C,1.600000*%
%TD*%
%TA.AperFunction,ComponentPad*%
%ADD13R,1.300000X1.300000*%
%TD*%
%TA.AperFunction,ComponentPad*%
%ADD14C,1.300000*%
%TD*%
%TA.AperFunction,ViaPad*%
%ADD15C,0.600000*%
%TD*%
%TA.AperFunction,Conductor*%
%ADD16C,0.200000*%
%TD*%
G04 APERTURE END LIST*
D10*
%TO.P,SW12,1,1*%
%TO.N,GND*%
X129460000Y-116920000D03*
%TO.P,SW12,2,2*%
%TO.N,BUTTON_RIGHT*%
X123110000Y-119460000D03*
%TD*%
%TO.P,SW10,1,1*%
%TO.N,GND*%
X129460000Y-77920000D03*
%TO.P,SW10,2,2*%
%TO.N,BUTTON_DOWN*%
X123110000Y-80460000D03*
%TD*%
%TO.P,SW9,1,1*%
%TO.N,GND*%
X129460000Y-58420000D03*
%TO.P,SW9,2,2*%
%TO.N,BUTTON_UP*%
X123110000Y-60960000D03*
%TD*%
%TO.P,SW2,1,1*%
%TO.N,GND*%
X109960000Y-38920000D03*
%TO.P,SW2,2,2*%
%TO.N,BUTTON_2*%
X103610000Y-41460000D03*
%TD*%
%TO.P,SW6,1,1*%
%TO.N,GND*%
X109960000Y-116920000D03*
%TO.P,SW6,2,2*%
%TO.N,BUTTON_6*%
X103610000Y-119460000D03*
%TD*%
D11*
%TO.P,U1,1,GND*%
%TO.N,GND*%
X162949200Y-16700800D03*
D12*
%TO.P,U1,2,0_RX1_CRX2_CS1*%
%TO.N,unconnected-(U1-0_RX1_CRX2_CS1-Pad2)*%
X162949200Y-19240800D03*
%TO.P,U1,3,1_TX1_CTX2_MISO1*%
%TO.N,unconnected-(U1-1_TX1_CTX2_MISO1-Pad3)*%
X162949200Y-21780800D03*
%TO.P,U1,4,2_OUT2*%
%TO.N,unconnected-(U1-2_OUT2-Pad4)*%
X162949200Y-24320800D03*
%TO.P,U1,5,3_LRCLK2*%
%TO.N,unconnected-(U1-3_LRCLK2-Pad5)*%
X162949200Y-26860800D03*
%TO.P,U1,6,4_BCLK2*%
%TO.N,unconnected-(U1-4_BCLK2-Pad6)*%
X162949200Y-29400800D03*
%TO.P,U1,7,5_IN2*%
%TO.N,unconnected-(U1-5_IN2-Pad7)*%
X162949200Y-31940800D03*
%TO.P,U1,8,6_OUT1D*%
%TO.N,MEMCS*%
X162949200Y-34480800D03*
%TO.P,U1,9,7_RX2_OUT1A*%
%TO.N,DIN*%
X162949200Y-37020800D03*
%TO.P,U1,10,8_TX2_IN1*%
%TO.N,DOUT*%
X162949200Y-39560800D03*
%TO.P,U1,11,9_OUT1C*%
%TO.N,unconnected-(U1-9_OUT1C-Pad11)*%
X162949200Y-42100800D03*
%TO.P,U1,12,10_CS_MQSR*%
%TO.N,SDCS*%
X162949200Y-44640800D03*
%TO.P,U1,13,11_MOSI_CTX1*%
%TO.N,MOSI*%
X162949200Y-47180800D03*
%TO.P,U1,14,12_MISO_MQSL*%
%TO.N,MISO*%
X162949200Y-49720800D03*
%TO.P,U1,15,3V3*%
%TO.N,unconnected-(U1-3V3-Pad15)*%
X162949200Y-52260800D03*
%TO.P,U1,16,24_A10_TX6_SCL2*%
%TO.N,unconnected-(U1-24_A10_TX6_SCL2-Pad16)*%
X162949200Y-54800800D03*
%TO.P,U1,17,25_A11_RX6_SDA2*%
%TO.N,BUTTON_8*%
X162949200Y-57340800D03*
%TO.P,U1,18,26_A12_MOSI1*%
%TO.N,BUTTON_7*%
X162949200Y-59880800D03*
%TO.P,U1,19,27_A13_SCK1*%
%TO.N,BUTTON_6*%
X162949200Y-62420800D03*
%TO.P,U1,20,28_RX7*%
%TO.N,BUTTON_5*%
X162949200Y-64960800D03*
%TO.P,U1,21,29_TX7*%
%TO.N,BUTTON_4*%
X162949200Y-67500800D03*
%TO.P,U1,22,30_CRX3*%
%TO.N,BUTTON_3*%
X162949200Y-70040800D03*
%TO.P,U1,23,31_CTX3*%
%TO.N,BUTTON_2*%
X162949200Y-72580800D03*
%TO.P,U1,24,32_OUT1B*%
%TO.N,BUTTON_1*%
X162949200Y-75120800D03*
%TO.P,U1,25,33_MCLK2*%
%TO.N,BUTTON_UP*%
X178189200Y-75120800D03*
%TO.P,U1,26,34_RX8*%
%TO.N,BUTTON_DOWN*%
X178189200Y-72580800D03*
%TO.P,U1,27,35_TX8*%
%TO.N,BUTTON_LEFT*%
X178189200Y-70040800D03*
%TO.P,U1,28,36_CS*%
%TO.N,BUTTON_RIGHT*%
X178189200Y-67500800D03*
%TO.P,U1,29,37_CS*%
%TO.N,unconnected-(U1-37_CS-Pad29)*%
X178189200Y-64960800D03*
%TO.P,U1,30,38_CS1_IN1*%
%TO.N,unconnected-(U1-38_CS1_IN1-Pad30)*%
X178189200Y-62420800D03*
%TO.P,U1,31,39_MISO1_OUT1A*%
%TO.N,unconnected-(U1-39_MISO1_OUT1A-Pad31)*%
X178189200Y-59880800D03*
%TO.P,U1,32,40_A16*%
%TO.N,unconnected-(U1-40_A16-Pad32)*%
X178189200Y-57340800D03*
%TO.P,U1,33,41_A17*%
%TO.N,unconnected-(U1-41_A17-Pad33)*%
X178189200Y-54800800D03*
%TO.P,U1,34,GND*%
%TO.N,unconnected-(U1-GND-Pad34)*%
X178189200Y-52260800D03*
%TO.P,U1,35,13_SCK_LED*%
%TO.N,SCK*%
X178189200Y-49720800D03*
%TO.P,U1,36,14_A0_TX3_SPDIF_OUT*%
%TO.N,unconnected-(U1-14_A0_TX3_SPDIF_OUT-Pad36)*%
X178189200Y-47180800D03*
%TO.P,U1,37,15_A1_RX3_SPDIF_IN*%
%TO.N,VOL_A1*%
X178189200Y-44640800D03*
%TO.P,U1,38,16_A2_RX4_SCL1*%
%TO.N,unconnected-(U1-16_A2_RX4_SCL1-Pad38)*%
X178189200Y-42100800D03*
%TO.P,U1,39,17_A3_TX4_SDA1*%
%TO.N,unconnected-(U1-17_A3_TX4_SDA1-Pad39)*%
X178189200Y-39560800D03*
%TO.P,U1,40,18_A4_SDA*%
%TO.N,SDA*%
X178189200Y-37020800D03*
%TO.P,U1,41,19_A5_SCL*%
%TO.N,SCL*%
X178189200Y-34480800D03*
%TO.P,U1,42,20_A6_TX5_LRCLK1*%
%TO.N,LRCLK*%
X178189200Y-31940800D03*
%TO.P,U1,43,21_A7_RX5_BCLK1*%
%TO.N,BCLK*%
X178189200Y-29400800D03*
%TO.P,U1,44,22_A8_CTX1*%
%TO.N,unconnected-(U1-22_A8_CTX1-Pad44)*%
X178189200Y-26860800D03*
%TO.P,U1,45,23_A9_CRX1_MCLK1*%
%TO.N,MCLK*%
X178189200Y-24320800D03*
%TO.P,U1,46,3V3*%
%TO.N,+3.3V*%
X178189200Y-21780800D03*
%TO.P,U1,47,GND*%
%TO.N,GND*%
X178189200Y-19240800D03*
%TO.P,U1,48,VIN*%
%TO.N,unconnected-(U1-VIN-Pad48)*%
X178189200Y-16700800D03*
%TO.P,U1,49*%
%TO.N,N/C*%
X175649200Y-19240800D03*
%TO.P,U1,50*%
X165489200Y-62420800D03*
%TO.P,U1,51*%
X168029200Y-62420800D03*
%TO.P,U1,52*%
X170569200Y-62420800D03*
%TO.P,U1,53*%
X173109200Y-62420800D03*
%TO.P,U1,54*%
X175649200Y-62420800D03*
D11*
%TO.P,U1,55*%
X166000000Y-23000000D03*
D12*
%TO.P,U1,56*%
X166000000Y-25540000D03*
%TO.P,U1,57*%
X166000000Y-28080000D03*
%TO.P,U1,58*%
X166000000Y-30620000D03*
%TO.P,U1,59*%
X166000000Y-33160000D03*
D13*
%TO.P,U1,60*%
X175750800Y-29670800D03*
D14*
%TO.P,U1,61*%
X173750800Y-29670800D03*
%TO.P,U1,62*%
X171750800Y-29670800D03*
%TO.P,U1,63*%
X171750800Y-31670800D03*
%TO.P,U1,64*%
X173750800Y-31670800D03*
%TO.P,U1,65*%
X175750800Y-31670800D03*
%TO.P,U1,66*%
X171839200Y-17430800D03*
%TO.P,U1,67*%
X169299200Y-17430800D03*
%TD*%
D10*
%TO.P,SW5,1,1*%
%TO.N,GND*%
X109960000Y-97420000D03*
%TO.P,SW5,2,2*%
%TO.N,BUTTON_5*%
X103610000Y-99960000D03*
%TD*%
%TO.P,SW1,1,1*%
%TO.N,GND*%
X109960000Y-19420000D03*
%TO.P,SW1,2,2*%
%TO.N,BUTTON_1*%
X103610000Y-21960000D03*
%TD*%
%TO.P,SW4,1,1*%
%TO.N,GND*%
X109960000Y-77920000D03*
%TO.P,SW4,2,2*%
%TO.N,BUTTON_4*%
X103610000Y-80460000D03*
%TD*%
%TO.P,SW8,1,1*%
%TO.N,GND*%
X129460000Y-38920000D03*
%TO.P,SW8,2,2*%
%TO.N,BUTTON_8*%
X123110000Y-41460000D03*
%TD*%
%TO.P,SW7,1,1*%
%TO.N,GND*%
X129460000Y-19420000D03*
%TO.P,SW7,2,2*%
%TO.N,BUTTON_7*%
X123110000Y-21960000D03*
%TD*%
%TO.P,SW3,1,1*%
%TO.N,GND*%
X109960000Y-58420000D03*
%TO.P,SW3,2,2*%
%TO.N,BUTTON_3*%
X103610000Y-60960000D03*
%TD*%
%TO.P,SW11,1,1*%
%TO.N,GND*%
X129460000Y-97420000D03*
%TO.P,SW11,2,2*%
%TO.N,BUTTON_LEFT*%
X123110000Y-99960000D03*
%TD*%
D15*
%TO.N,BUTTON_2*%
X155000000Y-72580800D03*
%TO.N,BUTTON_3*%
X155000000Y-69500000D03*
%TO.N,BUTTON_4*%
X155000000Y-71000000D03*
%TO.N,BUTTON_5*%
X153692821Y-74500000D03*
%TO.N,BUTTON_6*%
X153000000Y-77000000D03*
%TO.N,BUTTON_7*%
X155000000Y-59880800D03*
%TO.N,BUTTON_8*%
X137250000Y-36750000D03*
%TO.N,BUTTON_LEFT*%
X155400000Y-89000000D03*
X136400000Y-110000000D03*
X176500000Y-77600000D03*
%TO.N,BUTTON_RIGHT*%
X128500000Y-33500000D03*
X160500000Y-56000000D03*
X137500000Y-33500000D03*
X118500000Y-116500000D03*
%TD*%
D16*
%TO.N,BUTTON_2*%
X96040000Y-133500000D02*
X96040000Y-36460000D01*
X155000000Y-72580800D02*
X154500000Y-73080800D01*
X154500000Y-92000000D02*
X138000000Y-108500000D01*
X97000000Y-35500000D02*
X102610000Y-35500000D01*
X96040000Y-36460000D02*
X97000000Y-35500000D01*
X102610000Y-35500000D02*
X103610000Y-36500000D01*
X154500000Y-73080800D02*
X154500000Y-92000000D01*
X138000000Y-108500000D02*
X138000000Y-133500000D01*
X138000000Y-133500000D02*
X96040000Y-133500000D01*
X103610000Y-36500000D02*
X103610000Y-41460000D01*
%TO.N,BUTTON_3*%
X137000000Y-65000000D02*
X137000000Y-57000000D01*
X104610000Y-55000000D02*
X103610000Y-56000000D01*
X154000000Y-68500000D02*
X140500000Y-68500000D01*
X103610000Y-56000000D02*
X103610000Y-60960000D01*
X137000000Y-57000000D02*
X135000000Y-55000000D01*
X155000000Y-69500000D02*
X154000000Y-68500000D01*
X140500000Y-68500000D02*
X137000000Y-65000000D01*
X135000000Y-55000000D02*
X104610000Y-55000000D01*
%TO.N,BUTTON_4*%
X135250000Y-74500000D02*
X104610000Y-74500000D01*
X154000000Y-72000000D02*
X140000000Y-72000000D01*
X155000000Y-71000000D02*
X154000000Y-72000000D01*
X103610000Y-75500000D02*
X103610000Y-80460000D01*
X104610000Y-74500000D02*
X103610000Y-75500000D01*
X139600000Y-72400000D02*
X137350000Y-72400000D01*
X140000000Y-72000000D02*
X139600000Y-72400000D01*
X137350000Y-72400000D02*
X135250000Y-74500000D01*
%TO.N,BUTTON_5*%
X152400000Y-75792821D02*
X152400000Y-91350000D01*
X137000000Y-96000000D02*
X135000000Y-94000000D01*
X109570000Y-94000000D02*
X103610000Y-99960000D01*
X135000000Y-94000000D02*
X109570000Y-94000000D01*
X152400000Y-91350000D02*
X137000000Y-106750000D01*
X153692821Y-74500000D02*
X152400000Y-75792821D01*
X137000000Y-106750000D02*
X137000000Y-96000000D01*
%TO.N,BUTTON_6*%
X103610000Y-114390000D02*
X103610000Y-119460000D01*
X153000000Y-92000000D02*
X137000000Y-108000000D01*
X153000000Y-77000000D02*
X153000000Y-92000000D01*
X135000000Y-113500000D02*
X104500000Y-113500000D01*
X104500000Y-113500000D02*
X103610000Y-114390000D01*
X137000000Y-111500000D02*
X135000000Y-113500000D01*
X137000000Y-108000000D02*
X137000000Y-111500000D01*
%TO.N,BUTTON_7*%
X136500000Y-16000000D02*
X125000000Y-16000000D01*
X153880800Y-59880800D02*
X139000000Y-45000000D01*
X139000000Y-18500000D02*
X136500000Y-16000000D01*
X125000000Y-16000000D02*
X123110000Y-17890000D01*
X139000000Y-45000000D02*
X139000000Y-18500000D01*
X155000000Y-59880800D02*
X153880800Y-59880800D01*
X123110000Y-17890000D02*
X123110000Y-21960000D01*
%TO.N,BUTTON_8*%
X125000000Y-35500000D02*
X123110000Y-37390000D01*
X137250000Y-36750000D02*
X136000000Y-35500000D01*
X136000000Y-35500000D02*
X125000000Y-35500000D01*
X123110000Y-37390000D02*
X123110000Y-41460000D01*
%TO.N,BUTTON_UP*%
X139434314Y-72000000D02*
X139834314Y-71600000D01*
X155248529Y-70400000D02*
X158848529Y-74000000D01*
X153551471Y-71600000D02*
X154751471Y-70400000D01*
X158848529Y-74000000D02*
X177068400Y-74000000D01*
X123110000Y-60960000D02*
X123110000Y-71110000D01*
X177068400Y-74000000D02*
X178189200Y-75120800D01*
X123110000Y-71110000D02*
X124000000Y-72000000D01*
X139834314Y-71600000D02*
X153551471Y-71600000D01*
X124000000Y-72000000D02*
X139434314Y-72000000D01*
X154751471Y-70400000D02*
X155248529Y-70400000D01*
%TO.N,BUTTON_DOWN*%
X180500000Y-77000000D02*
X180500000Y-74891600D01*
X180500000Y-74891600D02*
X178189200Y-72580800D01*
X124500000Y-92000000D02*
X135000000Y-92000000D01*
X123110000Y-90610000D02*
X124500000Y-92000000D01*
X123110000Y-80460000D02*
X123110000Y-90610000D01*
X137000000Y-73500000D02*
X137700000Y-72800000D01*
X135000000Y-92000000D02*
X137000000Y-90000000D01*
X161000000Y-77000000D02*
X180500000Y-77000000D01*
X153765685Y-72800000D02*
X154584885Y-71980800D01*
X137000000Y-90000000D02*
X137000000Y-73500000D01*
X155980800Y-71980800D02*
X161000000Y-77000000D01*
X137700000Y-72800000D02*
X153765685Y-72800000D01*
X154584885Y-71980800D02*
X155980800Y-71980800D01*
%TO.N,BUTTON_LEFT*%
X161000000Y-77500000D02*
X176400000Y-77500000D01*
X135000000Y-111500000D02*
X136400000Y-110100000D01*
X123110000Y-99960000D02*
X123110000Y-110110000D01*
X124500000Y-111500000D02*
X135000000Y-111500000D01*
X156500000Y-89000000D02*
X157000000Y-88500000D01*
X136400000Y-110100000D02*
X136400000Y-110000000D01*
X155400000Y-89000000D02*
X156500000Y-89000000D01*
X176400000Y-77500000D02*
X176500000Y-77600000D01*
X157000000Y-81500000D02*
X161000000Y-77500000D01*
X157000000Y-88500000D02*
X157000000Y-81500000D01*
X123110000Y-110110000D02*
X124500000Y-111500000D01*
%TO.N,BUTTON_RIGHT*%
X128500000Y-33500000D02*
X137500000Y-33500000D01*
X160500000Y-56000000D02*
X170784035Y-56000000D01*
X177089200Y-66400800D02*
X178189200Y-67500800D01*
X170784035Y-56000000D02*
X177089200Y-62305165D01*
X177089200Y-62305165D02*
X177089200Y-66400800D01*
X121460000Y-119460000D02*
X118500000Y-116500000D01*
X123110000Y-119460000D02*
X121460000Y-119460000D01*
%TD*%
M02*
