M48
; DRILL file {KiCad 8.0.5} date 2024-11-15T19:56:41-0500
; FORMAT={-:-/ absolute / inch / decimal}
; #@! TF.CreationDate,2024-11-15T19:56:41-05:00
; #@! TF.GenerationSoftware,Kicad,Pcbnew,8.0.5
; #@! TF.FileFunction,MixedPlating,1,2
FMAT,2
INCH
; #@! TA.AperFunction,Plated,PTH,ViaDrill
T1C0.0118
; #@! TA.AperFunction,Plated,PTH,ComponentDrill
T2C0.0315
; #@! TA.AperFunction,Plated,PTH,ComponentDrill
T3C0.0433
; #@! TA.AperFunction,Plated,PTH,ComponentDrill
T4C0.0591
; #@! TA.AperFunction,NonPlated,NPTH,ComponentDrill
T5C0.0669
; #@! TA.AperFunction,NonPlated,NPTH,ComponentDrill
T6C0.1063
; #@! TA.AperFunction,NonPlated,NPTH,ComponentDrill
T7C0.1575
%
G90
G05
T1
X4.6654Y-4.5866
X5.0591Y-1.3189
X5.3701Y-4.3307
X5.4035Y-1.4469
X5.4134Y-1.3189
X6.0236Y-3.0315
X6.0509Y-2.9331
X6.1024Y-2.3575
X6.1024Y-2.7362
X6.1024Y-2.7953
X6.1024Y-2.8575
X6.1181Y-3.5039
X6.3189Y-2.2047
X6.9488Y-3.0551
T2
X6.6653Y-0.6863
X6.7618Y-1.1681
X6.7618Y-1.2469
X6.7653Y-0.6863
X6.8406Y-1.1681
X6.8406Y-1.2469
X6.9193Y-1.1681
X6.9193Y-1.2469
T3
X6.4153Y-0.6575
X6.4153Y-0.7575
X6.4153Y-0.8575
X6.4153Y-0.9575
X6.4153Y-1.0575
X6.4153Y-1.1575
X6.4153Y-1.2575
X6.4153Y-1.3575
X6.4153Y-1.4575
X6.4153Y-1.5575
X6.4153Y-1.6575
X6.4153Y-1.7575
X6.4153Y-1.8575
X6.4153Y-1.9575
X6.4153Y-2.0575
X6.4153Y-2.1575
X6.4153Y-2.2575
X6.4153Y-2.3575
X6.4153Y-2.4575
X6.4153Y-2.5575
X6.4153Y-2.6575
X6.4153Y-2.7575
X6.4153Y-2.8575
X6.4153Y-2.9575
X6.5153Y-2.4575
X6.5354Y-0.9055
X6.5354Y-1.0055
X6.5354Y-1.1055
X6.5354Y-1.2055
X6.5354Y-1.3055
X6.6153Y-2.4575
X6.7153Y-2.4575
X6.8153Y-2.4575
X6.9153Y-0.7575
X6.9153Y-2.4575
X7.0153Y-0.6575
X7.0153Y-0.7575
X7.0153Y-0.8575
X7.0153Y-0.9575
X7.0153Y-1.0575
X7.0153Y-1.1575
X7.0153Y-1.2575
X7.0153Y-1.3575
X7.0153Y-1.4575
X7.0153Y-1.5575
X7.0153Y-1.6575
X7.0153Y-1.7575
X7.0153Y-1.8575
X7.0153Y-1.9575
X7.0153Y-2.0575
X7.0153Y-2.1575
X7.0153Y-2.2575
X7.0153Y-2.3575
X7.0153Y-2.4575
X7.0153Y-2.5575
X7.0153Y-2.6575
X7.0153Y-2.7575
X7.0153Y-2.8575
X7.0153Y-2.9575
T4
X4.0791Y-0.8646
X4.0791Y-1.6323
X4.0791Y-2.4
X4.0791Y-3.1677
X4.0791Y-3.9354
X4.0791Y-4.7031
X4.3291Y-0.7646
X4.3291Y-1.5323
X4.3291Y-2.3
X4.3291Y-3.0677
X4.3291Y-3.8354
X4.3291Y-4.6031
X4.8469Y-0.8646
X4.8469Y-1.6323
X4.8469Y-2.4
X4.8469Y-3.1677
X4.8469Y-3.9354
X4.8469Y-4.7031
X5.0969Y-0.7646
X5.0969Y-1.5323
X5.0969Y-2.3
X5.0969Y-3.0677
X5.0969Y-3.8354
X5.0969Y-4.6031
T5
X4.0291Y-0.9646
X4.0291Y-1.7323
X4.0291Y-2.5
X4.0291Y-3.2677
X4.0291Y-4.0354
X4.0291Y-4.8031
X4.4291Y-0.9646
X4.4291Y-1.7323
X4.4291Y-2.5
X4.4291Y-3.2677
X4.4291Y-4.0354
X4.4291Y-4.8031
X4.7969Y-0.9646
X4.7969Y-1.7323
X4.7969Y-2.5
X4.7969Y-3.2677
X4.7969Y-4.0354
X4.7969Y-4.8031
X5.1969Y-0.9646
X5.1969Y-1.7323
X5.1969Y-2.5
X5.1969Y-3.2677
X5.1969Y-4.0354
X5.1969Y-4.8031
T6
X3.622Y-0.7087
X3.622Y-5.1969
X7.3228Y-0.7087
X7.3228Y-5.2036
T7
X4.2291Y-0.9646
X4.2291Y-1.7323
X4.2291Y-2.5
X4.2291Y-3.2677
X4.2291Y-4.0354
X4.2291Y-4.8031
X4.9969Y-0.9646
X4.9969Y-1.7323
X4.9969Y-2.5
X4.9969Y-3.2677
X4.9969Y-4.0354
X4.9969Y-4.8031
M30
